<?xml version="1.0" encoding="UTF-8"?>
<svg width="20px" height="20px" viewBox="0 0 20 20" version="1.1" xmlns="http://www.w3.org/2000/svg" xmlns:xlink="http://www.w3.org/1999/xlink">
    <!-- Generator: Sketch 51.2 (57519) - http://www.bohemiancoding.com/sketch -->
    <title>search</title>
    <desc>Created with Sketch.</desc>
    <defs></defs>
    <g id="HomePage" stroke="none" stroke-width="1" fill="none" fill-rule="evenodd">
        <g id="Desktop-HD" transform="translate(-906.000000, -379.000000)" stroke="#000000">
            <g id="search-submit-enter" transform="translate(495.000000, 367.000000)">
                <path d="M421.788582,25.2885822 C425.654575,25.2885822 428.788582,22.1545755 428.788582,18.2885822 C428.788582,14.422589 425.654575,11.2885822 421.788582,11.2885822 C417.922589,11.2885822 414.788582,14.422589 414.788582,18.2885822 C414.788582,22.1545755 417.922589,25.2885822 421.788582,25.2885822 Z M421.788582,30.7885822 L421.788582,34.7885822 L422.288582,34.2885822 L421.288582,34.2885822 L421.788582,34.7885822 L421.788582,30.7885822 Z M421.788582,30.7885822 L421.788582,26.7885822 L421.288582,27.2885822 L422.288582,27.2885822 L421.788582,26.7885822 L421.788582,30.7885822 Z" id="search" transform="translate(421.788582, 22.788582) rotate(-45.000000) translate(-421.788582, -22.788582) "></path>
            </g>
        </g>
    </g>
</svg>